# xmcd
#
# Track frame offsets: 
#        183
#        33620
#        56688
#        82335
#        115440
#        144790
#        170625
#        192840
#
# Disc length: 3086 seconds
#
# Revision: 17
# Processed by: cddbd v1.5.2PL0 Copyright (c) Steve Scherf et al.
# Submitted via: ExactAudioCopy v1.3
#
DISCID=720c0c08
DTITLE=Iron Maiden - Somewhere In Time
DYEAR=1986
DGENRE=Heavy Metal
TTITLE0=Caught Somewhere In Time
TTITLE1=Wasted Years
TTITLE2=Sea Of Madness
TTITLE3=Heaven Can Wait
TTITLE4=The Loneliness Of The Long Distance Runner
TTITLE5=Stranger In A Strange Land
TTITLE6=Deja-Vu
TTITLE7=Alexander The Great
EXTD=
EXTT0=
EXTT1=
EXTT2=
EXTT3=
EXTT4=
EXTT5=
EXTT6=
EXTT7=
PLAYORDER=
